<?xml version="1.0" encoding="utf-8"?>
<!-- Generator: Adobe Illustrator 24.3.0, SVG Export Plug-In . SVG Version: 6.00 Build 0)  -->
<svg version="1.1" id="Layer_1" xmlns="http://www.w3.org/2000/svg" xmlns:xlink="http://www.w3.org/1999/xlink" x="0px" y="0px"
	 viewBox="0 0 595.3 841.9" style="enable-background:new 0 0 595.3 841.9;" xml:space="preserve">
<style type="text/css">
	.st0{fill:#FCC7AD;}
	.st1{fill:#1F1D1E;}
	.st2{fill:#D39576;}
	.st3{fill:#C46C62;}
	.st4{fill:#050606;}
	.st5{fill:#DF9788;}
	.st6{fill:#FFFBFA;stroke:#FFFFFF;stroke-miterlimit:10;}
	.st7{fill:#FFFFFF;}
	.st8{fill:#D79A7A;}
	.st9{fill:#020202;}
	.st10{fill:#1E3452;}
</style>
<polygon class="st0" points="218.8,488 220.8,510.8 233.1,521 235.3,490.7 "/>
<path class="st1" d="M202.1,240.9c0,0,8.7-21.2,37.1-28.4c0,0,24.3-12.5,96.3,0c0,0,39,9.9,51.2,37.1c0,0,2.3,6.4,3.8,36
	c0,0,5.3,23.9,8.3,25.8l3.8,56.8h1.9c0,0,0-20.5,12.9-25.8l6.4-8.3c0,0,3-22,10.2-26.5c0,0,13.6-21.6-1.9-42.8
	c0,0,7.6-12.1-14.8-35.6c0,0-2.7-17.1-12.5-30.3l-21.2-17.1c0,0-5.3-12.9-23.5-20.5c0,0-7.1-21.6-62.5-17.4
	c0,0-40.2-31.5-104.3,48.9c0,0-2.7-2.7-1.9-22.7c0,0-10.6,9.1-6.1,32.2c0,0-3-2.7-4.2,19.7c0,0-1.9,1.5-3.4-17.1
	c0,0-10.2,10.6-4.2,17.8c0,0-10.2-3.4-11.7,18.2c0,0-10.6,4.5,0,14.4l-3,6.1l7.2-3.8l-5.3,8.3l4.9,0.8c0,0-7.9,0.8-8.5,7.6l4,0.4
	c0,0-4.1-1.5-4,17.1l11.9,2.3c0,0-8.3,10.2-4.9,28.8l11.7,22.7l-0.4,4.2c0,0,7.6,9.9,10.6,18.6l4.2-54.9c0,0,4.5-14.4,4.2-27.7
	C194.5,285.7,203.6,263.7,202.1,240.9z"/>
<path class="st2" d="M186.2,368.3l4.2-54.9c0,0,4.2-12.5,4.2-27.7c0,0,2.7-7.1,5.1-16.2c1.4-5.7,2.5-9.9,2.9-15.6
	c0.4-5.3,0-9.7-0.4-12.8c3.7-6.1,8.2-13.3,15.7-18.5c12.9-9,35.8-17.3,76-15c0,0,47.7,2.1,64.9,14.6c0,0,21.1,10.9,27.9,27.6l2,12.5
	c0,0-24.8-30.3-60-26.9c0,0-101.9-31.2-129.6,52.4L186.2,368.3z"/>
<path class="st0" d="M388.6,262.2l1.8,23.5c0,0,5.3,25,8.3,25.8l3.8,56.8c0,0-3,29.6-9.1,36c0,0-0.8,3.4-6.4,6.4l-4.9,3h-4.2v2.1
	h1.6l-3.6,3.6l-0.7-2.7l-3.7,7.4c0,0-6.9,5.5-24.3-11.9c0,0-20.5-14-44.3-4.2c0,0-1.5,3-8.3-1.1c0,0-35.2-3.8-40.9,9.1
	c0,0,1.5,5.4-23.9,9c0,0-19.7-16.5-28.4-17.3c-2.3-2.8-4.7-6.1-7-10c-5.5-9.5-7.9-18.5-9.1-25.2c4.6-28.3,9.2-56.5,13.8-84.8
	c3.5-10.5,10.4-25.3,24.3-37.8c41-36.7,102.2-15.7,105.3-14.6c5.7-0.4,13-0.2,21.2,1.9C370.8,242.3,383.6,256.1,388.6,262.2z"/>
<path class="st0" d="M218.8,494.1c0,0,4.3,19,1.4,23.5c0,0,9.1,61.4,53.8,91.3c0,0,6.5,15.3,3.2,20l22.5,95.2l50.4-5.7l13.3-59.1
	l21.7-74.3l2.2-48.1l-10.6-26.1l3.4-21.6l-1.3-3.8c0,0-7.9,22.2-42.1,42.9C336.7,528.3,263.2,582.3,218.8,494.1z"/>
<path class="st1" d="M185.2,372.4c0,0-0.8,34.5,0.9,44c0,0,2.5,47.2,34.9,80c0,0,59.7,88.1,138.9,14.4c0,0,14-11.6,18.9-25.4
	c0,0,17.4-14.8,22-57.2c0.6-19.5,1.1-38.9,1.7-58.4c-0.3,4.5-1,9.6-2.3,15.2c-1.8,7.7-4.3,14.2-6.8,19.3c0,0-1.5,3.4-6.4,6.4l-4.9,3
	h-4.2v2.1h1.6l-3.6,3.6l-0.7-2.7l-3.7,7.4c0,0-5.8,7-24.3-11.9c0,0-18.4-12.9-44.3-4.2c0,0-0.2,3.4-8.3-1.1c0,0-36.2-1.9-40.9,9.1
	c0,0,0.8,5.2-23.9,9c0,0-23.7-17.1-28.4-17.3C201.3,407.7,190.9,399.7,185.2,372.4z"/>
<path class="st0" d="M240.3,440.8c0,0,9.9-8.3,10.6-9.1c0.8-0.8,44.6-28.9,94.7-3.4c0,0,13.8,9.3,15.2,11.2c0,0-10.4,26.9-24.8,44.1
	l-0.2-9.1l-6.3,9.1l-9.5,0.9c0,0-6.3-1.5-4.5-17.6c0,0,5.9-3.4,3.8-11.1H283c0,0-6.4,0.3,3.6,13c0,0,4.4,4.4-3.4,15.7
	c0,0-8-21.6-9.3-1.3l-6.1-8.7l0.2,10C268,484.6,248.5,475.3,240.3,440.8z"/>
<path class="st3" d="M250.2,435.3c0,0,5.1,2.7,18.2-8.5c0,0,10.9-11.2,29.2-3.4c0,0,8.8-12.3,34,3l5.5,3.2c0,0,6.1,3.8,8.2-0.6
	c0,0-3.7,6.1-10,5.7s-11.1-3.6-11.1-3.6s-11.4-3-15-0.2c-3.7,2.8-5.8,3.5-11.6,1.6c0,0-13.3-2.8-19.6,0.9c0,0-9.4,2.2-11.8,3.9
	C263.7,439.2,253.5,438.7,250.2,435.3z"/>
<path class="st4" d="M345.4,430.1c0,0-2.6,5.1-10.8,5.1c0,0-8.2-0.8-10.5-3.4c0,0-11.5-3.6-14.8-0.8c0,0-4.1,5.2-11.6,1.6
	c0,0-14.4-2.9-19.6,0.9c0,0-11.5,3-11.8,3.9c0,0-7.5,4.5-16-2.2l2.9,3.1c0,0,10.1,4.5,14.5,0.6c0,0,11.2-4.2,14-3.7c0,0,9-2.4,16,0
	c0,0,9.3,2.5,12.5-0.9c3.2-3.4,17.4,1.3,17.4,1.3l10.6,0.8c0,0,6.1-1.2,6.6-3.8S345.4,430.1,345.4,430.1z"/>
<path class="st5" d="M266.9,439.6c0,0,17.2,7.1,32,6.1c0,0,30.9,0.7,35.2-9.5c0,0-13.7-3.1-14.4-2.5c0,0-8.5-1.5-9.6,0.7
	c0,0-5.4,3-12.5,0.9c0,0-10.4-2.5-15.4-0.1C282.2,435.2,267.6,437.9,266.9,439.6z"/>
<path d="M206.1,307.9c0,0,22-12.6,38.9-7.3c0,0,17.4,9.6,19.5-3.3c0,0-8.3-11.1-36.6-11.1l2.8,2.8
	C230.6,288.9,213.9,291,206.1,307.9z"/>
<path d="M314.7,301.3c0,0,1.5,4.8,16.2,1c0,0,26.3-6.1,44.2,3c0,0-1-5.8-18.2-15.4c0,0-24.5-5.1-30.8,0
	C326.1,290,314.7,293,314.7,301.3z"/>
<path class="st2" d="M264.5,297.3c0,0,21.2,12.4,21,33.6c0,0-1.7,18.4-18.6,45.2l3.9-16.7c0,0,8.6-22,4.2-34.6c0,0-5-16.1-13.9-21.8
	L264.5,297.3z"/>
<path class="st2" d="M327.9,303c0,0-24.5,10.7-25.8,26.1c0,0-4.8,12.4,15.9,29.6c0,0-9-17.4-5.2-24.8c0,0,44.1-21.2,58.3-0.5
	C371.1,333.4,366.5,301,327.9,303z"/>
<path class="st1" d="M328.8,326.4c0,0,13.5-7.2,21.6-5.1s18.5,9.5,18.5,9.5s-6-9.1-15.5-11.2C344,317.5,330.3,321.3,328.8,326.4z"/>
<path class="st1" d="M328.8,332.3c0,0-7.4,3.4-8,7.4C320.9,339.7,317.8,335.1,328.8,332.3z"/>
<path class="st1" d="M215.9,336c0,0,14.6-27,47-8.5c0,0,0.4-2.6-14.4-8.5C248.5,319,222,314.5,215.9,336z"/>
<path class="st1" d="M220.8,336c0,0,5.3-13.1,22-8.7c0,0,14.8,2.1,25,11.1c0,0-5.5,3-16.7,3.2s-22.5,1.3-25.6-4.9L220.8,336z"/>
<path class="st6" d="M226.3,334.9c0,0,4-4.1,7.8-4.1c0,0-0.3,8.5,1.2,8.9C235.3,339.7,227.8,337.6,226.3,334.9z"/>
<path class="st7" d="M251.7,332.3c0,0,0.2,5.4-1.5,7.4c0,0,4.7,0.8,7.6-1.9C260.6,335.1,251.7,332.3,251.7,332.3z"/>
<path class="st2" d="M224.2,345.9c0,0,26.2,9.1,36.8-2.3c0,0-8.7,11.9-18.4,11.4C233,354.4,225,348.8,224.2,345.9z"/>
<path class="st1" d="M228,348.2c0,0,20.3,6.4,26.2,0c0,0-4.8,5.7-13.1,5.1S228,349.3,228,348.2z"/>
<path class="st1" d="M324.7,338.1c0,0,12.3-17.6,30.5-10.7c0,0,7.8,3.3,10,8.5c0,0-1.5,2.8-20.3,5.8
	C344.9,341.7,325.4,340.9,324.7,338.1z"/>
<path class="st7" d="M334.1,330.8c0,0-13.7,9.2,4.2,9C338.3,339.8,334.1,337.7,334.1,330.8z"/>
<path class="st7" d="M354.6,330c0,0,0.9,5.5-1.1,7.6C353.5,337.6,363,335.5,354.6,330z"/>
<path class="st8" d="M317.5,341.7c0,0,20.5,12.7,49.1,4.4C366.5,346.1,333.8,367.5,317.5,341.7z"/>
<path class="st1" d="M321,346.3c0,0,25.7,15.1,39.9,1.8C360.9,348.2,339.5,354.7,321,346.3z"/>
<path class="st9" d="M266.9,376.7c0,0-6.5,14.7,1.3,17.6c0,0,0.5,1.8,8,1.5c0,0,4.2-8.5,11.4-0.8l0.6,4.5c0,0,12.1,7,16.5-1.3
	c4.5-8.3,5.6-8.9,16-3.2c0,0,6.9,2.3,5.1-14.5c0,0-0.8-4.7-1.8-6.8c0,0,3.2-2.3,4.1,12.3c0.9,14.5-8.9,11.6-8.9,11.6
	s-6.6-1.3-12.4,1.7c0,0-6.8,8.2-13.5,5.1c-6.6-3.1-7.6-6.4-16.7-6.4c0,0-9.2,0.9-11.5-3.3C262.8,390.8,260.1,385.7,266.9,376.7z"/>
<path class="st9" d="M251.7,380"/>
<path class="st0" d="M175.5,349.7c0,0-11.6,6.2-8.8,30.3c0,0-3,22.1,4.2,26.9c0,0,3.1,9,2.1,11.8c0,0,2.5,12.6,15,11.3
	c0,0-5.2-44.5-2.8-57.6l0.9-4.2C186.2,368.3,177.8,350.8,175.5,349.7z"/>
<path class="st2" d="M177.1,355c0,0-2,16.8-7.8,22.1C169.2,377.1,167.1,353.4,177.1,355z"/>
<path class="st2" d="M178.3,368.3c0,0-22.5,35.6,1.3,34.6c0,0-4.4,27.7,5.5,12.1l0.4-12.6l-0.2-29.9
	C185.2,372.4,183.9,357.7,178.3,368.3z"/>
<path class="st0" d="M417.3,342.5c0,0,11.6,16.9,6.3,36.4c0,0,1.5,12.9-1,22.5c0,0-5.3,4.4-3.5,16.3c0,0-9.1,18.3-18.2,8.7l1.7-54.7
	l1.9-3.4C404.4,368.3,404.4,346.8,417.3,342.5z"/>
<path class="st2" d="M413,355c0,0,3.6-12.4,5.6-0.6c2,11.8,3.5,25.2,3.5,25.2L413,355z"/>
<path class="st2" d="M405.2,371.7c0,0,6.5,6.2,9.1,0s7.1,12.6,5.1,17.8c0,0,0.8,15.1-7.8,9.8c0,0-3.8,0.8-2.3,10.9
	C409.2,410.2,397.4,415.8,405.2,371.7z"/>
<path class="st10" d="M375.1,510.8c0,0,24.8,17.8,30.8,25.8l88.3,36.4c0,0,87.9,25,98.1,80c0,0-19.5-1.5-108.6,48.9
	c-89.2,50.4-122.9,44.3-122.9,44.3s-73.5,11-152-42.8c0,0-76.5,26.1-176.6-89.1l4.2-6.4c0,0,31.8-17.8,39-18.9l52.3-17.8
	c0,0,28.8-15.2,43.6-21.2c0,0,18.2-8,25.8-7.6c0,0,10.2-22.7,23.1-24.6c0,0-15.9,14-2.7,45.9c0,0,1.5,15.9,35.2,41.7l9.9,29.6
	c0,0,19.7-20.1,24.6,12.5l17.4,68.2l17.8-48.1l15.9-17.4l2.7,8l9.9-8.7c0,0-4.2-23.9-3-33.7c0,0,28.4-33.7,30.3-45.9
	c0,0,14.8-25.8,0-48.5L375.1,510.8z"/>
<path class="st2" d="M220.3,517.6c0,0,6.8,56.8,53.8,91.3c0,0,6.5,15.7,3.2,20c0,0-4.8-1.8-14.6,5.8l-9.9-29.6
	C252.9,605.1,188.8,561.9,220.3,517.6z"/>
<path class="st2" d="M378.3,521l-17.4,78.1c0,0,15.5-17.1,17.4-29.6C378.3,569.5,393.8,545.2,378.3,521z"/>
<path class="st2" d="M223.8,500.1c-0.3,4.1-0.4,14.9,6.2,26.2c7.2,12.3,18,17.4,21.7,18.9c0,0,22.4,10.2,23.9,14.8l12.1,16.1
	c0,0,9.5,7,17.8,0l6.8-13.5l18.6-23l5.8-11.4c0,0-14.1,10.5-38.9,11.8c0,0-26.6,0.7-44.1-13c-3.8-2.4-7.8-5.2-11.9-8.6
	C234.1,512.3,228.2,505.8,223.8,500.1z"/>
<g>
	<g>
		<path class="st0" d="M403.1,370.6c1.3,0,1.3-2,0-2C401.8,368.6,401.8,370.6,403.1,370.6L403.1,370.6z"/>
	</g>
</g>
<g>
	<g>
		<path class="st0" d="M404.1,370.2c1.3,0,1.3-2,0-2C402.8,368.2,402.8,370.2,404.1,370.2L404.1,370.2z"/>
	</g>
</g>
<g>
	<g>
		<path class="st0" d="M402,370.2c1.3,0,1.3-2,0-2C400.7,368.2,400.7,370.2,402,370.2L402,370.2z"/>
	</g>
</g>
</svg>
